<svg version="1.1" id="Layer_1" xmlns="http://www.w3.org/2000/svg" xmlns:xlink="http://www.w3.org/1999/xlink" x="0px" y="0px"
	 viewBox="0 0 1024 1024" style="enable-background:new 0 0 1024 1024;" xml:space="preserve">
<g>
	<path fill="currentColor" d="M397.447,177.24c-2.037-8.819,10.213-10.962,15.485-6.099
		c38.514,25.015,64.317,65.909,79.617,108.485c2.394,7.756,5.549,15.642,5.549,23.832c9.305-0.25,18.639-0.539,27.933,0.092
		c2.483-25.002,14.262-48.19,26.499-69.787c15.761-25.369,35.177-50.148,61.86-64.555c6.151-4.245,16.878,3.393,10.976,9.768
		c-14.945,4.127-26.185,15.615-36.726,26.381c-26.711,27.946-43.09,63.701-56.708,99.258c7.914,0.789,15.472,3.299,23.108,5.336
		c10.082-18.219,27.933-30.43,46.258-39.316c4.653-2.195,10.883-5.033,15.247-0.762c3.905,3.391,0.329,9.543-3.891,10.66
		c-19.585,6.508-38.725,16.115-53.5,30.746c15.34,7.967,31.102,21.23,32.39,39.974c1.302,19.337-13.789,36.753-30.667,43.707
		c-28.998-18.587-69.051-18.547-97.956,0.185c-16.746-7.203-32.008-24.385-30.575-43.865c0.75-18.916,16.629-32.322,32.18-40.014
		c-14.197-15.471-35.202-24.199-54.618-31.928c-7.611-4.01-1.367-14.539,6.086-11.502c21.177,8.15,41.499,21.873,52.883,42.023
		c7.584-2.234,15.156-4.588,23.068-5.402c-17.259-44.102-39.236-89.267-78.132-118.383
		C409.159,181.658,401.587,181.855,397.447,177.24z"/>
	<path fill="currentColor" d="M345.841,260.58c-4.417-3.943-2.235-15.578,4.548-11.029c6.967,20.678,32.73,14.025,49.438,16.195
		c0.118,3.023,0.132,6.059,0.105,9.096C381.739,273.698,356.146,280.625,345.841,260.58z"/>
	<path fill="currentColor" d="M674.082,248.684c8.964-1.998,6.901,9.333,3.116,13.645c-11.253,17.759-34.992,11.436-52.542,12.842
		c-1.116-2.983-0.486-6.27-0.67-9.371C640.957,263.38,667.641,270.189,674.082,248.684z"/>
	<path fill="currentColor" d="M0.024,326.857c-0.814-19.902,19.297-32.285,37.384-31.391
		c52.672,0.092,104.897,12.198,154.335,29.813C128.345,317.615,62.857,312.58,0.024,326.857z"/>
	<path fill="currentColor" d="M833.411,325.305c48.833-16.627,99.914-29.142,151.719-29.982
		c18.047-1.197,38.593,10.135,38.87,30.088C961.548,314.775,896.428,316.656,833.411,325.305z"/>
	<path fill="none" d="M0.024,326.857c62.833-14.277,128.321-9.242,191.718-1.578
		c83.272,26.711,161.419,67.262,237.306,110.313c-6.849,14.301-11.253,30.363-9.939,46.27c7.217,10.74,18.799,17.811,30.181,23.596
		c40.671,20.795,91.673,19.664,131.238-3.234c9.399-5.363,19.061-11.752,24.385-21.439c0.144-15.826-4.075-31.535-11.16-45.652
		c77.438-41.287,155.859-82.551,239.658-109.826c63.017-8.648,128.137-10.529,190.589,0.105
		c-0.632,11.225-8.375,20.033-14.197,29.063c-48.755,61.255-110.061,112.349-176.772,153.02
		c-19.074,11.697-42.301,9.174-63.318,5.797c-57.813-6.928-115.716-13.42-173.711-18.35c-0.539,0.656-1.644,1.971-2.195,2.629
		c-13.026,21.451-35.005,36.896-59.297,42.813c-39.277,10.029-84.061-7.979-104.975-42.76c-0.973-1.342-2.327-3.195-4.233-2.682
		c-52.632,5.178-105.277,10.607-157.765,17.205c-18.363,1.762-36.871,5.955-55.327,2.906c-14.854-3.314-27.552-12.266-40.408-19.969
		c-49.583-32.389-95.248-70.836-135.774-114.004C22.041,364.714,5.032,348.481,0.024,326.857z"/>
	<path fill="currentColor" d="M429.048,435.592c18.402-36.004,62.596-53.645,101.387-45.68
		c26.368,4.719,50.568,21.545,63.318,45.219c7.085,14.117,11.305,29.826,11.16,45.652c-5.324,9.688-14.985,16.076-24.385,21.439
		c-39.565,22.898-90.567,24.029-131.238,3.234c-11.382-5.785-22.964-12.855-30.181-23.596
		C417.795,465.955,422.199,449.893,429.048,435.592z"/>
	<path fill="currentColor" d="M72.715,404.174c51.41-7.531,103.187-14.932,155.268-14.184
		c67.749,2.473,132.041,28.236,193.032,55.814c-0.999,4.063-1.774,8.295-3.522,12.094c-63.213-21.467-128.032-39.566-194.282-48.598
		C173.392,402.413,122.39,404.529,72.715,404.174z"/>
	<path fill="currentColor" d="M783.171,390.873c55.643-3.051,112.074,4.166,166.401,13.682
		c-54.367-1.09-109.064-1.379-162.97,6.824c-61.388,9.688-120.986,27.853-180.164,46.389c-1.866-3.787-2.418-8.098-3.379-12.172
		C660.489,420.436,720.102,396.34,783.171,390.873z"/>
	<path fill="currentColor" d="M181.673,480.414c74.848-7.754,151.916-24.344,226.251-4.363c2.826,1.105,7.741,0.566,7.899,4.627
		c-4.416,2.103-9.648,1.342-14.42,2.037C328.239,486.658,254.654,483.768,181.673,480.414z"/>
	<path fill="currentColor" d="M615.271,476.484c32.625-8.899,66.815-12,100.518-9.268c41.763,3.445,83.628,7.1,125.048,13.213
		c-77.45,3.152-155.491,7.74-232.771,0.486C608.449,477.523,612.813,477.68,615.271,476.484z"/>
	<path fill="currentColor" d="M365.255,527.383c18.586-14.973,41.38-23.82,64.279-29.76
		c20.914,34.781,65.697,52.789,104.975,42.76c24.292-5.916,46.271-21.361,59.297-42.813c23.779,6.703,47.388,16.18,66.764,31.861
		c24.41,18.799,49.371,37.004,73.242,56.432c-3.128,2.643-2.3,10.07-7.584,9.215c-17.798-0.697-35.53-2.537-53.342-2.918
		c-15.367-20.297-29.865-41.262-44.72-61.951c-1.433-2.156-3.022-4.207-4.679-6.178c-24.857,32.309-62.439,56.246-103.517,59.992
		c-47.427,3.457-91.187-24.818-120.564-59.836c-1,1.551-1.999,3.115-2.984,4.693c-15.209,21.006-30.207,42.182-45.875,62.846
		c-18.207,1.512-36.885,2.893-55.275,3.365c-1.458-3.248-3.076-6.428-5.035-9.398C314.687,565.568,339.898,546.35,365.255,527.383z"
		/>
	<path fill="none" d="M399.406,524.188c29.378,35.018,73.138,63.293,120.564,59.836
		c41.078-3.746,78.659-27.684,103.517-59.992c1.656,1.971,3.246,4.021,4.679,6.178c1.433,13.92,7.559,27.223,8.005,41.406
		c-34.623,34.701-81.511,62.451-132.079,59.547c-45.14-3.457-85.758-28.814-116.95-60.414c0.959-14.408,6.624-27.894,9.28-41.867
		C397.407,527.303,398.406,525.738,399.406,524.188z"/>
	<path fill="currentColor" d="M387.142,570.748c31.192,31.6,71.81,56.957,116.95,60.414
		c50.568,2.904,97.456-24.846,132.079-59.547c2.42,20.045,2.314,40.787-2.3,60.426c-33.532,31.074-78.409,51.096-124.587,49.871
		c-44.521-0.354-86.651-20.926-119.33-50.264C384.749,611.957,385.314,590.977,387.142,570.748z"/>
	<path fill="currentColor" d="M291.092,596.117c2.366-0.711,3.431,2.273,4.771,3.654c19.415,29.496,38.87,58.967,57.903,88.701
		c-11.462,9.648-23.543,19.744-36.673,27.381C306.379,676.459,298.138,636.287,291.092,596.117z"/>
	<path fill="currentColor" d="M669.547,688.684c20.61-30.957,40.381-62.742,61.859-92.961c0.263,0.564,0.803,1.682,1.078,2.248
		c-7.453,39.525-15.129,79.092-25.107,118.094C693.852,708.295,681.942,698.055,669.547,688.684z"/>
	<path fill="none" d="M389.955,631.648c32.678,29.338,74.808,49.91,119.33,50.264
		c46.178,1.225,91.055-18.797,124.587-49.871c-2.339,18.68-8.136,37.188-15.931,54.119c-7.099,3.824-12.961,9.607-19.995,13.592
		c-51.868,33.453-122.982,32.744-174.143-1.815c-6.099-3.668-11.344-8.715-17.771-11.791l-0.29-0.133
		C398.552,668.609,391.256,650.604,389.955,631.648z"/>
	<path fill="currentColor" d="M406.031,686.147c6.428,3.076,11.673,8.123,17.771,11.791
		c51.16,34.559,122.274,35.268,174.143,1.815c7.034-3.984,12.897-9.768,19.995-13.592c-20.257,53.223-60.23,96.693-106.002,129.543
		C465.788,783.104,427.339,738.816,406.031,686.147z"/>
	<path fill="currentColor" d="M323.336,724.91c2.944-4.574,4.719-11.002,10.306-12.973c0.223,15.693-1.302,31.455-3.918,46.887
		c-18.047,28.367-29.93,63.568-19.06,96.877c-11.028-10.686-14.091-27.328-14.485-42.182
		C297.624,782.262,309.678,752.66,323.336,724.91z"/>
	<path fill="currentColor" d="M690.894,712.475c11.278,8.625,14.616,24.305,20.73,36.701
		c13.25,33.019,27.789,75.938,2.471,106.842c10.24-33.164-1.696-68.078-19.52-96.43C691.224,744.26,690.985,728.195,690.894,712.475
		z"/>
</g>
</svg>